<svg id="visual" viewBox="0 0 452 225" width="452" height="225" xmlns="http://www.w3.org/2000/svg" xmlns:xlink="http://www.w3.org/1999/xlink" version="1.1"><path d="M384 225L384.7 219.7C385.3 214.3 386.7 203.7 380.3 193C374 182.3 360 171.7 350.7 161C341.3 150.3 336.7 139.7 346.7 128.8C356.7 118 381.3 107 393 96.2C404.7 85.3 403.3 74.7 395.7 64C388 53.3 374 42.7 360.5 32C347 21.3 334 10.7 327.5 5.3L321 0L452 0L452 5.3C452 10.7 452 21.3 452 32C452 42.7 452 53.3 452 64C452 74.7 452 85.3 452 96.2C452 107 452 118 452 128.8C452 139.7 452 150.3 452 161C452 171.7 452 182.3 452 193C452 203.7 452 214.3 452 219.7L452 225Z" fill="#0066FF" stroke-linecap="round" stroke-linejoin="miter"></path></svg>